<svg width="18" height="20" viewBox="0 0 18 20" fill="none" xmlns="http://www.w3.org/2000/svg">
<path d="M11 12H6.99999V19H11V12Z" fill="#D6D1D5"/>
<path d="M17.42 8.17999L9.70999 0.299994C9.61703 0.206266 9.50643 0.131872 9.38457 0.0811031C9.26271 0.0303344 9.132 0.00419617 8.99999 0.00419617C8.86798 0.00419617 8.73728 0.0303344 8.61542 0.0811031C8.49356 0.131872 8.38296 0.206266 8.28999 0.299994L0.579993 8.18999C0.39343 8.37806 0.246088 8.60132 0.146521 8.8468C0.0469548 9.09229 -0.00285185 9.3551 -6.70605e-06 9.61999V18C-0.00078153 18.5119 0.194766 19.0046 0.546368 19.3767C0.897969 19.7488 1.37885 19.9718 1.88999 20H4.99999V11C4.99999 10.7348 5.10535 10.4804 5.29289 10.2929C5.48042 10.1054 5.73478 9.99999 5.99999 9.99999H12C12.2652 9.99999 12.5196 10.1054 12.7071 10.2929C12.8946 10.4804 13 10.7348 13 11V20H16.11C16.6211 19.9718 17.102 19.7488 17.4536 19.3767C17.8052 19.0046 18.0008 18.5119 18 18V9.61999C18.0008 9.08293 17.7928 8.56658 17.42 8.17999Z" fill="#D6D1D5"/>
</svg>
